<group>
ampeg_attack=0.004000
ampeg_release=0.300000

<region>
seq_length=2
seq_position=1
sample=Harmonica-Hohner-Special20-F/Sustains/Stac/Hohner-Special20-F_Stac_F3_rr1.wav
pitch_keycenter=65
lokey=65
hikey=67
tune=27
volume=-2.923059

<region>
seq_length=2
seq_position=2
sample=Harmonica-Hohner-Special20-F/Sustains/Stac/Hohner-Special20-F_Stac_F3_rr2.wav
pitch_keycenter=65
lokey=65
hikey=67
tune=31
volume=-2.167214

<region>
seq_length=2
seq_position=1
sample=Harmonica-Hohner-Special20-F/Sustains/Stac/Hohner-Special20-F_Stac_A3_rr1.wav
pitch_keycenter=69
lokey=68
hikey=70
tune=16
volume=2.262859

<region>
seq_length=2
seq_position=2
sample=Harmonica-Hohner-Special20-F/Sustains/Stac/Hohner-Special20-F_Stac_A3_rr2.wav
pitch_keycenter=69
lokey=68
hikey=70
tune=12
volume=1.328793

<region>
seq_length=2
seq_position=1
sample=Harmonica-Hohner-Special20-F/Sustains/Stac/Hohner-Special20-F_Stac_C4_rr1.wav
pitch_keycenter=72
lokey=71
hikey=74
tune=12
volume=6.632705

<region>
seq_length=2
seq_position=2
sample=Harmonica-Hohner-Special20-F/Sustains/Stac/Hohner-Special20-F_Stac_C4_rr2.wav
pitch_keycenter=72
lokey=71
hikey=74
tune=13
volume=1.788988

<region>
seq_length=2
seq_position=1
sample=Harmonica-Hohner-Special20-F/Sustains/Stac/Hohner-Special20-F_Stac_F4_rr1.wav
pitch_keycenter=77
lokey=75
hikey=79
tune=9
volume=1.755080

<region>
seq_length=2
seq_position=2
sample=Harmonica-Hohner-Special20-F/Sustains/Stac/Hohner-Special20-F_Stac_F4_rr2.wav
pitch_keycenter=77
lokey=75
hikey=79
tune=6
volume=-1.952939

<region>
seq_length=2
seq_position=1
sample=Harmonica-Hohner-Special20-F/Sustains/Stac/Hohner-Special20-F_Stac_A4_rr1.wav
pitch_keycenter=81
lokey=80
hikey=82
tune=3
volume=1.972835

<region>
seq_length=2
seq_position=2
sample=Harmonica-Hohner-Special20-F/Sustains/Stac/Hohner-Special20-F_Stac_A4_rr2.wav
pitch_keycenter=81
lokey=80
hikey=82
tune=2
volume=-3.788678

<region>
seq_length=2
seq_position=1
sample=Harmonica-Hohner-Special20-F/Sustains/Stac/Hohner-Special20-F_Stac_C5_rr1.wav
pitch_keycenter=84
lokey=83
hikey=86
tune=11
volume=5.889447

<region>
seq_length=2
seq_position=2
sample=Harmonica-Hohner-Special20-F/Sustains/Stac/Hohner-Special20-F_Stac_C5_rr2.wav
pitch_keycenter=84
lokey=83
hikey=86
tune=8
volume=3.307069

<region>
seq_length=2
seq_position=1
sample=Harmonica-Hohner-Special20-F/Sustains/Stac/Hohner-Special20-F_Stac_F5_rr1.wav
pitch_keycenter=89
lokey=87
hikey=91
tune=-1
volume=-2.362050

<region>
seq_length=2
seq_position=2
sample=Harmonica-Hohner-Special20-F/Sustains/Stac/Hohner-Special20-F_Stac_F5_rr2.wav
pitch_keycenter=89
lokey=87
hikey=91
volume=0.129213

<region>
seq_length=2
seq_position=1
sample=Harmonica-Hohner-Special20-F/Sustains/Stac/Hohner-Special20-F_Stac_A5_rr1.wav
pitch_keycenter=93
lokey=92
hikey=94
tune=2
volume=0.639743

<region>
seq_length=2
seq_position=2
sample=Harmonica-Hohner-Special20-F/Sustains/Stac/Hohner-Special20-F_Stac_A5_rr2.wav
pitch_keycenter=93
lokey=92
hikey=94
volume=-2.301942

<region>
seq_length=2
seq_position=1
sample=Harmonica-Hohner-Special20-F/Sustains/Stac/Hohner-Special20-F_Stac_C6_rr1.wav
pitch_keycenter=96
lokey=95
hikey=98
tune=1
volume=5.399755

<region>
seq_length=2
seq_position=2
sample=Harmonica-Hohner-Special20-F/Sustains/Stac/Hohner-Special20-F_Stac_C6_rr2.wav
pitch_keycenter=96
lokey=95
hikey=98
tune=-1
volume=-1.619612

<region>
seq_length=2
seq_position=1
sample=Harmonica-Hohner-Special20-F/Sustains/Stac/Hohner-Special20-F_Stac_F6_rr1.wav
pitch_keycenter=101
lokey=99
hikey=102
volume=-4.510287

<region>
seq_length=2
seq_position=2
sample=Harmonica-Hohner-Special20-F/Sustains/Stac/Hohner-Special20-F_Stac_F6_rr2.wav
pitch_keycenter=101
lokey=99
hikey=102
volume=1.549506

